<svg width="36" height="36" viewBox="0 0 36 36" fill="none" xmlns="http://www.w3.org/2000/svg">
<path d="M18.0002 35.9997C27.9413 35.9997 36.0001 27.9409 36.0001 17.9998C36.0001 8.0588 27.9413 0 18.0002 0C8.0592 0 0.000396729 8.0588 0.000396729 17.9998C0.000396729 27.9409 8.0592 35.9997 18.0002 35.9997Z" fill="#55ACEE"/>
<path d="M29.0257 12.9361C28.2543 13.2781 27.4246 13.5094 26.5544 13.6128C27.4429 13.0804 28.1247 12.2382 28.4465 11.2329C27.6152 11.7261 26.694 12.0838 25.7144 12.2767C24.9295 11.4408 23.8113 10.9185 22.5731 10.9185C20.1974 10.9185 18.2707 12.8452 18.2707 15.2209C18.2707 15.5582 18.3088 15.8864 18.3826 16.2015C14.8069 16.0221 11.6365 14.3093 9.51427 11.7055C9.14399 12.3408 8.93158 13.0804 8.93158 13.8688C8.93158 15.3611 9.69171 16.6786 10.8455 17.45C10.1406 17.4278 9.47673 17.2343 8.89693 16.9112C8.8966 16.9295 8.8966 16.9478 8.8966 16.9658C8.8966 19.0504 10.3803 20.7892 12.3481 21.1842C11.9875 21.283 11.6066 21.3353 11.2148 21.3353C10.937 21.3353 10.6678 21.3087 10.4053 21.2586C10.9527 22.9675 12.5413 24.2115 14.4245 24.2465C12.9517 25.4007 11.0968 26.0883 9.08046 26.0883C8.73393 26.0883 8.3906 26.0681 8.05466 26.0279C9.9577 27.2492 12.2198 27.9612 14.6494 27.9612C22.5632 27.9612 26.891 21.4053 26.891 15.7192C26.891 15.5328 26.8868 15.347 26.8785 15.1628C27.7198 14.5564 28.4491 13.7989 29.0257 12.9361Z" fill="#F1F2F2"/>
</svg>
